<svg width="53" height="71" viewBox="0 0 53 71" xmlns="http://www.w3.org/2000/svg"><g stroke-width="2" stroke="#C0C5CC" fill="none" fill-rule="evenodd" stroke-linejoin="round"><path d="M1.996 70A.994.994 0 0 1 1 68.998V2.002C1 1.449 1.455 1 2 1h35l15 15v52.993A.998.998 0 0 1 51.004 70H1.996zm10.822-42.182l6.364 6.364m0-6.364l-6.364 6.364m27.364-6.364l-6.364 6.364m0-6.364l6.364 6.364" stroke-linecap="round"/><path d="M37 1v13.993c0 .556.449 1.007 1.007 1.007H52"/><path d="M38.5 53.5s-4.5-3-12-3-12 3-12 3" stroke-linecap="round"/></g></svg>